P2
5 5
255
102 105 103 106 105 
100 104 102 104 102 
102 105 103 105 103 
102 106 104 106 104 
102 105 104 106 104 